<svg class="hidden fill-current hover:fill-white md:block" id="Component_58_39" data-name="Component 58 – 39" xmlns="http://www.w3.org/2000/svg" width="35.311" height="47.148" viewBox="0 0 35.311 47.148"><path id="Path_1254" data-name="Path 1254" d="M100.373,206.758h0l1.555-1.556a1.5,1.5,0,0,0,0-2.114L94.045,195.2a1.5,1.5,0,0,0-2.115,0l-7.884,7.884a1.5,1.5,0,0,0,0,2.114l1.555,1.556h0v12.795h0l-1.555,1.556a1.5,1.5,0,0,0,0,2.114l7.884,7.884a1.5,1.5,0,0,0,2.115,0l7.884-7.884a1.5,1.5,0,0,0,0-2.114l-1.555-1.556h0V206.758ZM95.954,213v5.969a1.5,1.5,0,0,1-.438,1.057l-2.529,2.529-2.529-2.529a1.5,1.5,0,0,1-.438-1.057V207.348a1.5,1.5,0,0,1,.438-1.057l2.529-2.529,2.529,2.529a1.5,1.5,0,0,1,.438,1.057Z" transform="translate(-75.332 -184.398)"></path><path id="Path_1255" data-name="Path 1255" d="M84.062,159.265l-7.175-7.175a1.5,1.5,0,0,0-2.115,0l-.927.927a1.5,1.5,0,0,1-1.057.438H60.9a1.5,1.5,0,0,1-1.057-.438l-.927-.927a1.5,1.5,0,0,0-2.115,0l-7.175,7.175a1.5,1.5,0,0,0,0,2.115l2.694,2.694a1.5,1.5,0,0,0,2.115,0l5.761-5.761a1.5,1.5,0,0,1,1.057-.438h11.18a1.5,1.5,0,0,1,1.057.438l5.761,5.761a1.5,1.5,0,0,0,2.115,0l2.694-2.694A1.5,1.5,0,0,0,84.062,159.265Z" transform="translate(-49.189 -151.652)"></path></svg>