<?xml version="1.0" encoding="utf-8"?>
<!-- Generator: Adobe Illustrator 16.0.0, SVG Export Plug-In . SVG Version: 6.00 Build 0)  -->
<!DOCTYPE svg PUBLIC "-//W3C//DTD SVG 1.1//EN" "http://www.w3.org/Graphics/SVG/1.1/DTD/svg11.dtd">
<svg version="1.1" id="Layer_1" xmlns="http://www.w3.org/2000/svg" xmlns:xlink="http://www.w3.org/1999/xlink" x="0px" y="0px"
	 width="3840px" height="2160px" viewBox="0 0 3840 2160" enable-background="new 0 0 3840 2160" xml:space="preserve">
<g>
	<g>
		<g>
			<path id="SVGID_1_" fill="#0055D5" d="M1920,330c414.149,0,750,335.85,750,750c0,414.149-335.851,750-750,750
				c-414.15,0-750-335.851-750-750C1170,665.85,1505.85,330,1920,330L1920,330z"/>
		</g>
	</g>
	<g>
		<g>
			<path id="SVGID_3_" fill="#FFFFFF" d="M1577.999,826.199c0,0-80.699-64.5-86.249,94.801c-5.55,123.45-5.4,363.149,51.75,476.399
				c24.149,42.601,56.399,29.55,116.399-12.9c52.2-38.55,241.05-212.55,321-288.898c79.95-76.351,242.101-295.351,275.85-146.551
				c13.35,62.55,29.85,115.649,17.251,254.4c-3.901,42.75-22.2,75.149-105.601,17.249c-63-40.5-122.85-84-122.85-84
				s-11.55-20.699-38.851,12.901c-21.449,26.85-32.25,33.448,2.101,53.85c34.5,20.399,208.95,140.699,275.85,159.449
				c55.2,16.051,86.7,15.75,88.35-92.7c-0.3-86.1-5.25-332.549-36.6-437.55c-23.7-65.4-58.5-95.1-133.65-21.6
				c-75.148,73.5-312.149,303.301-441.749,407.399c-85.95,64.5-122.7,122.7-155.101,15.151
				c-22.801-81.451-52.35-334.951,40.95-286.651c58.351,27.9,87.45,27.75,64.65,45.3c-22.8,17.399-88.351,77.551-88.351,77.551
				s-20.25,16.35-10.8,51.75c9.45,24.75,9.45,37.05,60.3-10.8c50.85-47.851,88.351-84,88.351-84s8.1-12.75,32.25,10.801
				c24.15,23.549,28.05,30.15,28.05,30.15s6.45,17.55,32.25-12.9c25.95-30.451,42.6-49.05-6.45-77.55
				C1798.199,948.449,1577.999,826.199,1577.999,826.199L1577.999,826.199z"/>
		</g>
	</g>
</g>
</svg>
