<?xml version="1.0" encoding="utf-8"?>
<!-- Generator: Adobe Illustrator 16.0.0, SVG Export Plug-In . SVG Version: 6.00 Build 0)  -->
<!DOCTYPE svg PUBLIC "-//W3C//DTD SVG 1.1//EN" "http://www.w3.org/Graphics/SVG/1.1/DTD/svg11.dtd">
<svg version="1.1" id="Layer_1" xmlns="http://www.w3.org/2000/svg" xmlns:xlink="http://www.w3.org/1999/xlink" x="0px" y="0px"
	 width="3840px" height="2160px" viewBox="0 0 3840 2160" enable-background="new 0 0 3840 2160" xml:space="preserve">
<g id="Icons_x2F_Tokens_x2F_CHZ">
	<g id="Group-5">
		<path id="Fill-1" fill="#CC0124" d="M2670,1080c0,414.219-335.78,750-750,750c-414.204,0-750-335.781-750-750
			c0-414.222,335.796-750,750-750C2334.22,330,2670,665.778,2670,1080"/>
		<path id="Fill-3" fill="#FEFEFE" d="M2106.769,1076.997c-0.805-0.037-1.577-0.128-2.417-0.128
			c-11.939,0-23.146,3.441-32.666,9.299l-105.98-73.862l261.619-184.369L2106.769,1076.997z M1878.491,1012.507l-104.244,73.461
			c-9.447-5.731-20.508-9.1-32.373-9.1c-1.079,0-2.141,0.109-3.204,0.165l-124.292-248.53L1878.491,1012.507z M2058.207,1181.365
			l-140.515,313.846l-130.682-312.672c10.731-11.207,17.359-26.404,17.359-43.174c0-4.287-0.439-8.459-1.264-12.563l119.073-83.862
			l120.906,84.191c-0.769,3.994-1.207,8.058-1.207,12.234C2041.877,1155.586,2048.102,1170.309,2058.207,1181.365L2058.207,1181.365
			z M2213.005,776.869l-291.01,205.005l-294.251-205.005H2213.005z M2291.851,689.362c-25.599,0-47.61,15.455-57.24,37.501h-629.223
			c-9.648-22.046-31.64-37.501-57.257-37.501c-34.533,0-62.513,27.997-62.513,62.513c0,34.516,27.98,62.494,62.513,62.494
			c1.081,0,2.125-0.109,3.186-0.146l142.567,285.111c-9.047,10.84-14.502,24.83-14.502,40.031c0,34.165,27.428,61.926,61.487,62.438
			l130.883,313.181c-10.748,11.206-17.377,26.371-17.377,43.141c0,34.498,27.979,62.474,62.495,62.474
			c34.516,0,62.529-27.976,62.529-62.474c0-16.185-6.225-30.91-16.335-42.003l140.698-314.285c0.224,0.041,0.443,0.041,0.59,0.041
			c34.534,0,62.547-27.98,62.547-62.512c0-15.493-5.713-29.703-15.088-40.617l137.623-284.488c0.804,0.018,1.608,0.109,2.417,0.109
			c34.535,0,62.548-27.978,62.548-62.494C2354.399,717.358,2326.386,689.362,2291.851,689.362L2291.851,689.362z"/>
	</g>
</g>
</svg>
