<?xml version="1.0" encoding="utf-8"?>
<!-- Generator: Adobe Illustrator 16.0.0, SVG Export Plug-In . SVG Version: 6.00 Build 0)  -->
<!DOCTYPE svg PUBLIC "-//W3C//DTD SVG 1.1//EN" "http://www.w3.org/Graphics/SVG/1.1/DTD/svg11.dtd">
<svg version="1.1" id="Layer_1" xmlns="http://www.w3.org/2000/svg" xmlns:xlink="http://www.w3.org/1999/xlink" x="0px" y="0px"
	 width="3840px" height="2160px" viewBox="0 0 3840 2160" enable-background="new 0 0 3840 2160" xml:space="preserve">
<g>
	<g>
		<path fill="#03316C" d="M1920.003,330l-649.742,375.006v749.996L1920.003,1830l649.736-374.998V705.006L1920.003,330z"/>
		<g>
			<polygon fill="#FFFFFF" points="2176.509,1537.039 2084.061,1537.039 1973.388,1435.471 1973.388,1383.393 2087.971,1274.01 
				2087.971,1100.833 2237.707,1003.178 2408.281,1132.091 			"/>
			<polygon fill="#FFFFFF" points="1793.697,1263.599 1810.622,1100.833 1754.634,955.002 2085.367,955.002 2030.677,1100.833 
				2046.305,1263.599 1918.698,1263.599 			"/>
			<polygon fill="#FFFFFF" points="1869.217,1435.471 1758.544,1538.338 1664.791,1538.338 1431.721,1132.083 1603.592,1004.483 
				1754.634,1100.833 1754.634,1274.01 1869.217,1383.385 1869.217,1435.471 			"/>
			<polygon fill="#FFFFFF" points="1663.491,654.218 2175.209,654.218 2236.408,914.641 1603.592,914.641 			"/>
		</g>
	</g>
</g>
</svg>
