<?xml version="1.0" encoding="utf-8"?>
<!-- Generator: Adobe Illustrator 16.0.0, SVG Export Plug-In . SVG Version: 6.00 Build 0)  -->
<!DOCTYPE svg PUBLIC "-//W3C//DTD SVG 1.1//EN" "http://www.w3.org/Graphics/SVG/1.1/DTD/svg11.dtd">
<svg version="1.1" id="Layer_1" xmlns="http://www.w3.org/2000/svg" xmlns:xlink="http://www.w3.org/1999/xlink" x="0px" y="0px"
	 width="3840px" height="2160px" viewBox="0 0 3840 2160" enable-background="new 0 0 3840 2160" xml:space="preserve">
<g>
	<path d="M1313.929,345.15c66.134,0,121.21,54.213,121.21,121.21c0,66.998-53.494,121.21-121.21,121.21
		c-66.124,0-121.201-54.212-121.201-121.21C1192.728,399.363,1246.223,345.15,1313.929,345.15"/>
	<path d="M2526.03,345.15c66.994,0,121.213,53.502,121.213,121.21c0,67.71-54.219,121.21-121.213,121.21
		c-67.004,0-121.211-53.5-121.211-121.21C2404.819,398.652,2459.026,345.15,2526.03,345.15"/>
	<path d="M1313.929,1557.25c67.001,0,121.21,53.496,121.21,121.208c0,66.126-54.209,121.208-121.21,121.208
		c-66.991,0-121.201-53.502-121.201-121.208C1192.728,1610.746,1246.938,1557.25,1313.929,1557.25"/>
	<path d="M2526.03,1557.25c66.125,0,121.213,53.496,121.213,121.208c0,66.126-53.506,121.208-121.213,121.208
		c-66.131,0-121.211-53.502-121.211-121.208C2404.819,1610.746,2458.328,1557.25,2526.03,1557.25"/>
	<path d="M2359.369,818.784c53.496,81.437,81.037,170.527,79.543,267.352c-1.582,93.751-27.543,179.765-79.543,258.124
		l168.242,167.533c99.424-129.101,149.932-272.012,149.932-428.734c1.494-159.795-49.002-304.284-149.932-434.884L2359.369,818.784z
		"/>
	<path d="M2192.153,1511.793c-79.787,53.503-167.217,81.041-262.307,82.621c-96.668,0-185.604-26.041-265.378-81.123
		l-168.721,166.741c130.359,100.929,274.54,151.434,434.099,149.936c157.98-1.58,300.658-52.005,429.523-149.936L2192.153,1511.793z
		"/>
	<path d="M1480.599,1341.182c-54.298-81.437-80.733-169.01-80.733-262.696c0-95.329,26.436-182.921,80.733-262.78l-169.189-167.532
		c-99.355,129.101-148.984,272.014-148.984,431.81c0,156.718,49.629,301.21,150.556,431.809l167.618-170.53V1341.182z"/>
	<path d="M1662.963,648.174c79.786-52.004,167.217-76.467,263.811-78.043c95.164,0,182.596,26.039,263.875,78.043l168.721-168.243
		C2227.426,380.504,2084.83,330,1926.774,330c-157.99,0-302.161,50.504-431.026,149.932L1662.963,648.174z"/>
	<path d="M2410.66,1578.791c6.23-6.633,9.314-13.26,9.314-21.541c0-8.288-3.084-14.995-9.314-21.63
		c-12.473-11.596-31.094-11.596-41.984,0c-6.23,6.635-9.307,13.342-9.307,21.63c0,8.281,3.154,14.908,9.307,21.541
		c6.232,5.049,13.965,8.362,21.779,8.362C2396.696,1588.792,2404.43,1585.494,2410.66,1578.791"/>
	<path d="M2335.766,1488.273c6.711-5.047,8.447-13.409,8.447-21.777c0-8.287-3.387-14.994-8.447-21.702
		c-11.754-11.675-31.953-11.675-43.711,0c-6.785,6.708-8.449,13.415-8.449,21.783c0,8.362,3.4,16.649,8.449,21.696
		c4.969,5.049,13.418,8.368,21.855,8.368C2322.28,1496.642,2330.717,1494.982,2335.766,1488.273"/>
	<path d="M2260.016,1412.518c6.707-5.049,8.445-13.411,8.445-21.779c0-8.287-3.398-14.988-8.445-21.702
		c-11.76-11.676-31.965-11.676-43.719,0c-5.053,6.714-8.441,13.415-8.441,21.782c0,8.369,3.389,16.65,8.441,21.699
		c6.705,6.713,13.414,8.368,21.863,8.368C2246.596,1420.886,2255.045,1419.23,2260.016,1412.518"/>
	<path d="M2184.26,1336.766c5.049-5.053,8.439-13.415,8.439-21.783c0-8.281-3.391-16.649-8.439-21.698
		c-11.758-11.682-31.961-11.682-43.721,0c-5.049,5.049-8.445,13.417-8.445,21.698c0,8.368,3.396,15.075,8.445,21.783
		c6.713,6.707,13.42,8.361,21.855,8.361C2170.842,1345.127,2177.555,1341.814,2184.26,1336.766"/>
	<path d="M2108.498,1260.61c5.053-4.966,8.449-13.253,8.449-21.541s-3.396-14.989-8.449-21.624
		c-11.756-11.601-31.953-11.601-43.711,0c-5.057,6.635-8.443,13.336-8.443,21.624s3.387,14.915,8.443,21.541
		c6.701,6.71,13.412,8.368,21.855,8.368C2093.354,1270.618,2101.791,1267.32,2108.498,1260.61"/>
	<path d="M2016.723,1184.86c6.242-4.974,9.316-13.262,9.316-21.543c0-8.288-3.074-14.995-9.316-21.622
		c-12.461-11.602-31.086-11.602-41.971,0c-6.24,6.627-9.32,13.334-9.32,21.622c0,8.281,3.156,14.908,9.32,21.543
		c6.23,6.708,13.963,8.362,21.775,8.362C2002.756,1194.859,2010.492,1191.568,2016.723,1184.86"/>
	<path d="M1941.84,1109.499c6.707-6.714,8.447-13.417,8.447-21.785c0-8.282-3.398-14.989-8.447-21.697
		c-11.76-11.68-31.963-11.68-43.722,0c-6.786,6.708-8.438,13.415-8.438,21.78c0,8.361,3.389,14.988,8.438,21.702
		c4.973,5.049,13.419,8.362,21.866,8.362C1928.422,1117.861,1936.791,1114.548,1941.84,1109.499"/>
	<path d="M1874.526,996.89c0-8.366-3.389-15.073-8.438-21.781c-11.76-11.679-31.963-11.679-43.722,0
		c-6.786,6.708-8.445,13.415-8.445,21.781c0,8.362,3.396,14.995,8.445,21.7c5.051,5.051,13.418,8.364,21.855,8.364
		c8.448,0,15.157-3.313,21.866-8.364C1872.865,1013.54,1874.526,1005.252,1874.526,996.89z"/>
	<path d="M1789.458,942.44c6.239-4.974,9.315-13.256,9.315-21.543s-3.076-14.995-9.315-21.622c-10.89-11.601-31.096-11.601-41.984,0
		c-6.229,5.051-9.305,13.334-9.305,21.622s3.152,16.569,9.305,21.543c6.242,6.707,13.974,8.364,21.789,8.364
		C1776.994,952.46,1784.797,949.147,1789.458,942.44"/>
	<path d="M1714.573,867.078c5.049-5.05,8.438-13.417,8.438-21.779c0-8.286-3.39-14.995-8.438-21.702
		c-11.756-11.68-31.963-11.68-43.719,0c-5.049,5.051-8.447,13.417-8.447,21.781c0,8.364,3.398,16.65,8.447,21.7
		c6.708,6.708,13.419,8.364,21.855,8.364C1699.418,875.442,1707.865,873.786,1714.573,867.078"/>
	<path d="M1623.665,791.32c5.048-5.051,8.438-13.415,8.438-21.777c0-8.288-3.391-14.993-8.438-21.705
		c-11.759-11.675-31.963-11.675-43.722,0c-5.049,5.053-8.437,13.417-8.437,21.781c0,8.368,3.388,14.995,8.437,21.701
		c6.711,6.709,13.419,8.366,21.866,8.366C1608.51,799.686,1616.957,796.375,1623.665,791.32"/>
	<path d="M1547.28,700.416c6.073-6.708,9.071-13.417,9.071-21.781c0-8.286-2.998-14.995-9.071-21.7
		c-12.157-11.68-30.303-11.68-42.462,0c-6.073,6.705-9.07,13.415-9.07,21.781c0,8.362,2.997,14.993,9.07,21.7
		c6.085,5.049,13.651,8.364,21.229,8.364S1541.205,705.465,1547.28,700.416"/>
	<path d="M1472.151,624.261c5.049-6.626,8.448-13.253,8.448-21.541c0-8.286-3.399-14.993-8.448-21.62
		c-11.756-11.601-31.963-11.601-43.719,0c-6.788,6.627-8.437,13.334-8.437,21.62c0,8.288,3.388,14.915,8.437,21.541
		c4.97,5.053,13.419,8.366,21.863,8.366C1458.732,634.286,1467.103,630.973,1472.151,624.261"/>
	<path d="M1428.432,1578.791c-6.699-6.633-8.437-13.26-8.437-21.541c0-8.288,3.388-14.995,8.437-21.63
		c11.756-11.596,31.963-11.596,43.719,0c6.789,6.635,8.448,13.342,8.448,21.63c0,8.281-3.399,14.908-8.448,21.541
		c-4.971,5.049-13.419,8.362-21.855,8.362C1443.588,1588.792,1435.139,1585.494,1428.432,1578.791"/>
	<path d="M1505.062,1488.273c-6.239-5.047-9.314-13.409-9.314-21.777c0-8.287,3.075-14.994,9.314-21.702
		c12.46-11.675,31.085-11.675,41.982,0c6.231,6.708,9.307,13.415,9.307,21.783c0,8.362-3.153,16.649-9.307,21.696
		c-6.239,5.049-13.976,8.368-21.786,8.368C1517.522,1496.642,1509.711,1494.982,1505.062,1488.273"/>
	<path d="M1579.944,1412.518c-6.708-5.049-8.437-13.411-8.437-21.779c0-8.287,3.388-14.988,8.437-21.702
		c11.759-11.676,31.963-11.676,43.722,0c5.048,6.714,8.438,13.415,8.438,21.782c0,8.369-3.391,16.65-8.438,21.699
		c-6.708,6.713-13.418,8.368-21.855,8.368C1593.363,1420.886,1584.914,1419.23,1579.944,1412.518"/>
	<path d="M1670.854,1336.766c-5.049-5.053-8.447-13.415-8.447-21.783c0-8.281,3.398-16.649,8.447-21.698
		c11.756-11.682,31.963-11.682,43.719,0c5.049,5.049,8.438,13.417,8.438,21.698c0,8.368-3.39,15.075-8.438,21.783
		c-6.707,6.707-13.417,8.361-21.863,8.361C1684.273,1345.127,1677.562,1341.814,1670.854,1336.766"/>
	<path d="M1747.24,1260.61c-6.073-4.966-9.071-13.253-9.071-21.541s2.998-14.989,9.071-21.624c12.158-11.601,30.304-11.601,42.45,0
		c6.084,6.635,9.083,13.336,9.083,21.624s-2.999,14.915-9.083,21.541c-6.073,6.71-13.644,8.368-21.222,8.368
		C1760.893,1270.618,1753.314,1267.32,1747.24,1260.61"/>
	<path d="M1822.366,1184.86c-5.049-4.974-8.445-13.262-8.445-21.543c0-8.288,3.396-14.995,8.445-21.622
		c11.759-11.602,31.962-11.602,43.722,0c6.776,6.627,8.438,13.334,8.438,21.622c0,8.281-3.389,14.908-8.438,21.543
		c-4.981,6.708-13.418,8.362-21.866,8.362C1835.784,1194.859,1829.076,1191.568,1822.366,1184.86"/>
	<path d="M1965.432,996.89c0-8.366,3.398-15.073,8.447-21.781c11.758-11.679,31.957-11.679,43.711,0
		c6.789,6.708,8.449,13.415,8.449,21.781c0,8.362-3.389,14.995-8.449,21.7c-5.049,5.051-13.406,8.364-21.855,8.364
		c-8.447,0-15.143-3.313-21.855-8.364C1968.83,1013.54,1965.432,1005.252,1965.432,996.89z"/>
	<path d="M2064.787,942.44c-6.707-4.974-8.443-13.256-8.443-21.543s3.387-14.995,8.443-21.622c11.758-11.601,31.955-11.601,43.711,0
		c6.789,5.051,8.449,13.334,8.449,21.622s-3.396,16.569-8.449,21.543c-4.969,6.707-13.406,8.364-21.855,8.364
		C2078.354,952.38,2069.84,949.226,2064.787,942.44"/>
	<path d="M2141.178,867.078c-6.086-5.05-9.084-13.417-9.084-21.779c0-8.286,2.998-14.995,9.084-21.702
		c12.146-11.68,30.301-11.68,42.451,0c6.072,5.051,9.07,13.417,9.07,21.781c0,8.364-2.998,16.65-9.07,21.7
		c-6.074,6.708-13.652,8.364-21.234,8.364C2154.828,875.442,2147.252,873.786,2141.178,867.078"/>
	<path d="M2216.297,791.32c-5.053-5.051-8.441-13.415-8.441-21.777c0-8.288,3.389-14.993,8.441-21.705
		c11.754-11.675,31.959-11.675,43.719,0c5.047,5.053,8.445,13.417,8.445,21.781c0,8.368-3.398,14.995-8.445,21.701
		c-6.711,6.709-13.42,8.366-21.855,8.366C2229.711,799.686,2221.266,796.375,2216.297,791.32"/>
	<path d="M2292.055,700.416c-5.049-6.708-8.449-13.417-8.449-21.781c0-8.286,3.4-14.995,8.449-21.7
		c11.758-11.68,31.957-11.68,43.711,0c5.061,6.705,8.447,13.415,8.447,21.781c0,8.362-3.387,14.993-8.447,21.7
		c-6.699,5.049-13.408,8.364-21.855,8.364C2305.473,708.78,2298.766,705.465,2292.055,700.416"/>
	<path d="M2368.44,624.261c-6.072-6.626-9.07-13.253-9.07-21.541c0-8.286,2.998-14.993,9.07-21.62
		c12.15-11.601,30.305-11.601,42.455,0c6.074,6.627,9.08,13.334,9.08,21.62c0,8.288-3.006,14.915-9.08,21.541
		c-6.076,5.053-13.654,8.366-21.223,8.366C2382.094,634.286,2374.518,630.973,2368.44,624.261"/>
</g>
</svg>
