<?xml version="1.0" encoding="utf-8"?>
<!-- Generator: Adobe Illustrator 16.0.0, SVG Export Plug-In . SVG Version: 6.00 Build 0)  -->
<!DOCTYPE svg PUBLIC "-//W3C//DTD SVG 1.0//EN" "http://www.w3.org/TR/2001/REC-SVG-20010904/DTD/svg10.dtd">
<svg version="1.0" id="Layer_1" xmlns="http://www.w3.org/2000/svg" xmlns:xlink="http://www.w3.org/1999/xlink" x="0px" y="0px"
	 width="3840px" height="2160px" viewBox="0 0 3840 2160" enable-background="new 0 0 3840 2160" xml:space="preserve">
<g>
	<path d="M2670.008,1080c0,414.208-335.793,750-750.015,750c-414.209,0-750.001-335.793-750.001-750
		c0-414.221,335.792-750,750.001-750C2334.215,330,2670.008,665.778,2670.008,1080z"/>
	<path fill="none" stroke="#000000" stroke-width="0.928" stroke-miterlimit="11.3386" d="M2670.008,1080
		c0,414.208-335.793,750-750.015,750c-414.209,0-750.001-335.793-750.001-750c0-414.221,335.792-750,750.001-750
		C2334.215,330,2670.008,665.778,2670.008,1080z"/>
	<path fill="#FFFFFF" d="M1948.721,834.655c41.904,4.996,79.318,19.229,113.854,43.484c17.65,12.379,44.004,38.731,56.383,56.381
		c70.371,99.621,56.936,235.078-31.623,318.091c-75.627,70.612-184.991,86.426-276.965,39.528
		c-66.401-33.998-113.316-96.188-128.332-170.771c-4.75-23.718-4.75-67.984,0-91.439c4.474-23.196,10.542-39.792,21.863-62.985
		C1749.237,875.765,1847.523,822.521,1948.721,834.655z M1506.254,662.826c-31.624,33.202-57.704,61.146-57.978,61.67
		c-0.261,0.798,28.208,28.728,63.247,61.929c35.057,33.461,65.622,62.728,67.737,64.565l3.953,3.691l-7.125,11.859
		c-62.449,103.296-75.366,227.691-36.097,342.049c7.382,21.621,20.024,49.292,30.826,67.479c5.271,8.944,7.646,14.754,7.125,15.812
		c-0.537,1.039-32.421,34.78-70.892,75.104c-38.473,40.054-69.835,73.514-70.36,74.052
		c-0.271,0.778,107.515,104.873,117.795,113.317l3.953,3.413l60.871-63.504c33.476-35.045,64.826-67.981,69.575-72.991l8.964-8.964
		l8.426,5.271c42.962,27.41,93.292,46.378,148.895,56.396c27.932,5.012,81.172,6.324,110.942,2.638
		c57.455-6.589,114.375-25.832,161.027-54.023l12.121-7.385l12.914,12.654c28.191,27.41,133.604,127.551,134.662,128.071
		c1.057,0.52,116.732-120.43,116.475-122.021c-0.262-0.778-79.582-76.941-128.072-122.541l-16.072-15.271l7.369-12.12
		c61.93-103.055,74.846-227.954,34.795-343.125c-5.807-16.868-23.457-54.803-33.738-72.209l-5.01-8.688l67.736-70.892
		c37.154-38.735,67.461-71.153,67.199-71.95c-1.057-2.636-119.645-114.636-121.223-114.636c-1.057,0-30.842,30.306-66.418,67.736
		c-35.576,37.155-65.086,67.721-65.883,67.98c-0.521,0.278-3.953-1.317-7.109-3.679c-8.963-6.064-31.623-18.447-44.279-24.253
		c-38.473-17.649-74.309-28.453-115.951-34.519c-21.604-3.155-86.428-3.694-106.457-0.798
		c-47.97,6.863-87.237,18.725-127.288,38.749c-11.599,5.531-25.036,12.914-30.307,16.072l-9.481,5.791l-10.807-10.542
		c-5.804-5.79-32.156-30.566-58.249-55.603c-26.079-24.773-52.706-50.069-59.021-56.397l-11.595-11.322L1506.254,662.826z"/>
</g>
</svg>
