<?xml version="1.0" encoding="utf-8"?>
<!-- Generator: Adobe Illustrator 16.0.0, SVG Export Plug-In . SVG Version: 6.00 Build 0)  -->
<!DOCTYPE svg PUBLIC "-//W3C//DTD SVG 1.0//EN" "http://www.w3.org/TR/2001/REC-SVG-20010904/DTD/svg10.dtd">
<svg version="1.0" id="Layer_1" xmlns="http://www.w3.org/2000/svg" xmlns:xlink="http://www.w3.org/1999/xlink" x="0px" y="0px"
	 width="3840px" height="2160px" viewBox="0 0 3840 2160" enable-background="new 0 0 3840 2160" xml:space="preserve">
<g>
	<circle fill="#C85553" cx="1920" cy="1080" r="750"/>
	<path fill="#FFFFFF" d="M2462.062,800.554l-357.453,186.666v218.314l123.173-63.49v126.981l-345.504,198.722l-277.991-158.731
		c-43.701-23.909-67.514-67.609-67.514-119.152V868.067l289.844-166.772c35.763-19.892,79.474-19.892,119.15,0l285.93,166.772
		l174.812-99.258l-444.866-258.202c-47.623-27.728-103.177-27.728-146.878,0L1370,768.809v520.208
		c0,47.619,27.728,95.449,67.514,119.162l452.699,262.009l452.698-262.009c43.701-23.713,67.514-71.543,67.514-119.162v-242.223
		L2470,1015.05V800.554H2462.062z"/>
</g>
</svg>
