<?xml version="1.0" encoding="utf-8"?>
<!-- Generator: Adobe Illustrator 16.0.0, SVG Export Plug-In . SVG Version: 6.00 Build 0)  -->
<!DOCTYPE svg PUBLIC "-//W3C//DTD SVG 1.1//EN" "http://www.w3.org/Graphics/SVG/1.1/DTD/svg11.dtd">
<svg version="1.1" id="Layer_1" xmlns="http://www.w3.org/2000/svg" xmlns:xlink="http://www.w3.org/1999/xlink" x="0px" y="0px"
	 width="3840px" height="2160px" viewBox="0 0 3840 2160" enable-background="new 0 0 3840 2160" xml:space="preserve">
<g>
	<path fill="#474DFF" d="M1920,330c-414.226,0-750,335.795-750,750.001c0,414.225,335.774,749.999,750,749.999
		c414.204,0,750-335.773,750-749.999C2670,665.795,2334.204,330,1920,330z M2319.598,920.414
		c-24.761,24.76-55.259,40.263-87.241,46.529c44.557,119.874,15.667,257.059-75.784,348.491
		c-63.11,63.109-148.031,96.518-234.008,96.518c-38.718,0-77.598-6.878-114.829-20.754c-6.205,32.106-21.749,62.826-46.631,87.689
		c-66.283,66.322-173.726,66.322-240.01,0c-66.284-66.245-66.284-173.707,0-239.991c24.739-24.739,55.237-40.241,87.158-46.508
		c-45.41-120.261-16.683-258.261,75.154-350.12c91.776-91.776,229.614-120.502,349.793-75.276
		c6.348-31.718,21.789-61.991,46.386-86.589c66.284-66.284,173.747-66.284,240.012,0
		C2385.882,746.668,2385.882,854.13,2319.598,920.414z"/>
	<path fill="#474DFF" d="M2119.362,720.158c-25.533,25.532-37.231,62.072-31.312,97.736c2.075,11.679,0.814,23.683-4.373,34.893
		c-6.695,14.466-18.616,24.842-32.472,29.948c-13.896,5.107-29.743,4.924-44.23-1.79c-81.298-37.639-178.487-20.345-241.861,43.03
		c-63.375,63.374-80.668,160.543-43.05,241.841c6.814,14.689,6.876,30.762,1.546,44.8c-5.167,13.633-15.442,25.271-29.704,31.902
		c-7.853,3.622-16.113,5.33-24.231,5.33c-3.865,0-7.649-0.489-11.393-1.261c-37.109-5.086-71.798,6.47-96.985,31.614
		c-21.159,21.16-32.816,49.317-32.816,79.266c0,29.946,11.658,58.104,32.816,79.263c43.721,43.702,114.828,43.702,158.529,0
		c25.512-25.552,37.211-62.091,31.291-97.735c-0.326-1.954-0.244-3.826,0-5.696c-0.671-9.44,0.936-19.206,5.188-28.403
		c6.673-14.404,18.534-24.739,32.328-29.865c13.937-5.167,29.847-4.966,44.373,1.708c81.319,37.679,178.508,20.346,241.882-42.97
		c63.354-63.395,80.647-160.583,43.03-241.86c-6.633-14.344-6.877-30.009-1.912-43.804c5.045-14.038,15.461-26.144,30.068-32.897
		c10.275-4.761,21.2-6.185,31.638-4.821c1.628-0.183,3.275-0.246,4.965-0.021c35.339,5.044,70.007-6.512,95.194-31.699
		c43.7-43.701,43.7-114.787,0-158.507C2234.168,676.456,2163.062,676.456,2119.362,720.158z M2008.603,1167.444
		c-48.482,48.504-127.096,48.504-175.598,0c-48.482-48.461-48.482-127.076,0-175.579c48.502-48.482,127.115-48.482,175.598,0
		C2057.105,1040.369,2057.105,1118.983,2008.603,1167.444z"/>
</g>
</svg>
