<?xml version="1.0" encoding="utf-8"?>
<!-- Generator: Adobe Illustrator 16.0.0, SVG Export Plug-In . SVG Version: 6.00 Build 0)  -->
<!DOCTYPE svg PUBLIC "-//W3C//DTD SVG 1.1//EN" "http://www.w3.org/Graphics/SVG/1.1/DTD/svg11.dtd">
<svg version="1.1" id="Layer_1" xmlns="http://www.w3.org/2000/svg" xmlns:xlink="http://www.w3.org/1999/xlink" x="0px" y="0px"
	 width="3840px" height="2160px" viewBox="0 0 3840 2160" enable-background="new 0 0 3840 2160" xml:space="preserve">
<g>
	<path fill="#FFFFFF" d="M1920,1830c414.209,0,750-335.791,750-750s-335.791-750-750-750s-750,335.791-750,750
		S1505.791,1830,1920,1830z"/>
	<path fill="#00A3FF" d="M1612.334,1026.729l-8.398,12.891c-94.678,145.264-73.535,335.547,50.879,457.422
		c73.193,71.729,169.092,107.568,265.015,107.592C1919.829,1604.633,1919.829,1604.633,1612.334,1026.729z"/>
	<path opacity="0.6" fill="#00A3FF" enable-background="new    " d="M1919.756,1202.364l-307.471-175.635
		c307.471,577.904,307.471,577.904,307.471,577.904C1919.756,1478.78,1919.756,1334.541,1919.756,1202.364z"/>
	<path opacity="0.6" fill="#00A3FF" enable-background="new    " d="M2227.666,1026.729l8.398,12.891
		c94.678,145.264,73.535,335.547-50.879,457.422c-73.193,71.729-169.092,107.568-265.015,107.592
		C1920.171,1604.633,1920.171,1604.633,2227.666,1026.729z"/>
	<path opacity="0.2" fill="#00A3FF" enable-background="new    " d="M1920.146,1202.364l307.471-175.635
		c-307.471,577.904-307.471,577.904-307.471,577.904C1920.146,1478.78,1920.146,1334.541,1920.146,1202.364z"/>
	<path opacity="0.2" fill="#00A3FF" enable-background="new    " d="M1920.244,810.03v302.93l264.868-151.367L1920.244,810.03z"/>
	<path opacity="0.6" fill="#00A3FF" enable-background="new    " d="M1920.171,810.03l-265.063,151.563l265.063,151.367V810.03z"/>
	<path fill="#00A3FF" d="M1920.171,555.22l-265.063,406.421l265.063-152.002V555.22z"/>
	<path opacity="0.6" fill="#00A3FF" enable-background="new    " d="M1920.244,809.639l265.063,151.978L1920.244,555V809.639z"/>
</g>
</svg>
