<?xml version="1.0" encoding="utf-8"?>
<!-- Generator: Adobe Illustrator 16.0.0, SVG Export Plug-In . SVG Version: 6.00 Build 0)  -->
<!DOCTYPE svg PUBLIC "-//W3C//DTD SVG 1.0//EN" "http://www.w3.org/TR/2001/REC-SVG-20010904/DTD/svg10.dtd">
<svg version="1.0" id="Layer_1" xmlns="http://www.w3.org/2000/svg" xmlns:xlink="http://www.w3.org/1999/xlink" x="0px" y="0px"
	 width="3840px" height="2160px" viewBox="0 0 3840 2160" enable-background="new 0 0 3840 2160" xml:space="preserve">
<path d="M2372.471,406.621L2059.199,871.66c-21.658,31.658,20.002,70.012,50.008,43.311l308.314-268.306
	c8.35-6.697,20.003-1.653,20.003,10v838.32c0,11.655-15.046,16.699-21.655,8.35L1482.576,386.619
	C1452.572,350.005,1409.173,330,1360.904,330h-33.398c-86.623,0-158.288,71.665-158.288,159.941v1180.031
	c0,88.362,71.665,160.027,160.029,160.027c54.966,0,106.626-28.525,136.633-76.709l313.271-464.949
	c21.743-31.657-19.917-70.1-49.922-43.486l-308.315,266.829c-8.35,6.608-20.002,1.565-20.002-10.088V664.929
	c0-11.655,14.958-16.614,21.655-8.264l933.293,1116.631c30.005,36.528,74.969,56.704,121.672,56.704h33.311
	c88.277,0,159.941-71.665,159.941-160.027V489.941C2669.131,401.665,2597.466,330,2509.19,330
	C2454.136,330,2402.476,358.352,2372.471,406.621z"/>
</svg>
