<svg xmlns="http://www.w3.org/2000/svg" data-name="Layer 1" viewBox="0 0 128 128"><path d="m63.39 48.87 2.1 26.22s-7.69.66-17.54 1c-12.54.37-25.79.06-28.22-.21-3.32-.38-5.37-.88-5.58-4.45-.18-3.09-.79-12-.9-14.27-.14-2.95.78-5.23 3.37-5.23s46.77-3.06 46.77-3.06zm18.92-11.43s-4.38-5.75-9.8-12.23C65 16.23 56.74 8.71 54.25 9.53 49.9 11 36 15.92 36 15.92l27.8 32.43zm19.74 12.33L83 37.41a75.17 75.17 0 0 0 4-8.63c1.4-4 2.45-8.58 2.45-8.58a17.39 17.39 0 0 1 4 2.12c6.51 4.2 11 11.1 10.72 17.87-.38 7.03-2.12 9.58-2.12 9.58zm.24.23L104 71.89s5.24-.42 6.53-.56 3.38-.88 3.25-4c-.16-3.73-.94-12.86-1-13.53-.19-1.62-1.28-2.67-4.09-3.23a31.94 31.94 0 0 0-6.4-.57zm1.59 22.2-16 12.94s6.93 13.91 7.74 15.2c1.11 1.78 2.61 2.09 4.37.78 2.06-1.53 7.13-8.15 8.13-9.72 1.42-2.22.74-6.6-.28-11-1.58-6.9-3.96-8.2-3.96-8.2zM87.47 85.22l-21.94-9.93s-18.11 36.55-18.86 38.22-1.09 3.21 1.67 3.85A51.17 51.17 0 0 0 59 118.53c3-.09 6.7-.63 9.83-4.6 3.48-4.48 18.64-28.71 18.64-28.71z"/></svg>