<?xml version="1.0" encoding="utf-8"?>
<!-- Generator: Adobe Illustrator 16.0.0, SVG Export Plug-In . SVG Version: 6.00 Build 0)  -->
<!DOCTYPE svg PUBLIC "-//W3C//DTD SVG 1.1//EN" "http://www.w3.org/Graphics/SVG/1.1/DTD/svg11.dtd">
<svg version="1.1" id="Layer_1" xmlns="http://www.w3.org/2000/svg" xmlns:xlink="http://www.w3.org/1999/xlink" x="0px" y="0px"
	 width="3840px" height="2160px" viewBox="0 0 3840 2160" enable-background="new 0 0 3840 2160" xml:space="preserve">
<g id="Group_938" transform="translate(-953.348 -232.003)">
	<g id="Group_931">
		<path id="Path_8573" fill="#F00500" d="M3217.464,694.049c-38.595,38.594-73.953,80.424-105.383,125.026l-9.938-3.235
			c-57.313-18.72-116.706-30.274-176.563-34.203c-18.025-1.387-85.276-1.387-107.23,0c-66.327,4.391-117.169,14.328-174.944,34.434
			c-2.312,0.925-4.392,1.618-6.472,2.312c-32.585-44.371-68.868-85.97-108.85-124.102
			c191.815-98.219,416.216-110.005,617.043-32.586c21.493,8.089,42.522,17.563,63.091,27.732L3217.464,694.049z"/>
		<path id="Path_8574" fill="#F00500" d="M3575.21,1570.621c-29.118,82.965-72.797,159.923-129.417,226.941
			c-30.737,36.053-64.709,69.101-101.223,99.144c-85.509,68.869-185.345,118.095-291.883,143.977
			c-117.862,28.427-240.808,28.427-358.671,0c-106.769-25.882-206.374-75.107-291.882-143.977
			c-36.514-30.043-70.485-63.091-101.222-99.144c-162.927-192.508-212.384-456.889-129.417-695.156
			c15.715-44.14,35.358-86.663,58.931-127.105c10.862-18.488,24.265-39.288,30.735-47.839
			c22.187,95.445,49.457,179.336,59.626,209.61c-0.694,1.617-1.619,3.467-2.542,5.084
			c-53.847,109.081-82.966,214.232-89.899,326.087c0,1.387-0.231,3.004-0.231,4.39c-1.848,33.511-0.924,49.456,4.622,70.487
			c17.333,65.863,70.717,138.43,154.377,209.609c137.043,116.476,322.85,200.598,463.59,210.304
			c146.75,9.938,363.293-75.803,507.501-201.059c22.647-20.107,43.909-41.368,63.783-64.017
			c14.329-16.639,35.59-45.296,33.973-45.296c-0.462,0,0-0.462,0.924-0.924c0.693-0.463,1.387-1.156,0.925-1.618
			c-0.231-0.23,0.231-0.924,0.925-1.155s1.156-0.693,0.924-1.155c-0.23-0.463,0-0.924,0.926-1.156
			c0.693-0.23,0.924-0.924,0.693-1.387c-0.23-0.461,0-0.924,0.462-0.924s0.925-0.693,0.925-1.155c0-0.463,0.462-1.156,0.924-1.156
			s0.925-0.462,0.925-0.924c0.693-1.85,1.849-3.697,3.004-5.316c3.467-5.315,17.333-30.043,19.182-34.203
			c13.173-29.812,21.493-56.389,25.421-82.965c1.85-12.711,3.005-36.052,2.081-41.6c-0.231-0.924-0.231-2.541-0.462-5.083
			c-0.463-4.623-0.693-11.556-1.156-18.488c-0.462-10.399-1.387-24.959-2.08-32.124c-9.938-104.92-36.746-190.659-87.588-281.482
			c-2.08-3.467-3.93-6.934-5.084-9.706c-0.463-0.693-0.693-1.387-0.925-1.85l0,0c7.165-21.492,36.515-111.392,59.856-214.231
			l0.462,0.462l3.467,4.622c6.008,8.088,21.953,32.123,29.118,43.678c32.585,53.154,58.008,110.236,76.033,169.861
			C3627.671,1276.195,3624.205,1429.187,3575.21,1570.621z"/>
		<path id="Path_8575" d="M3275.24,1294.453c-0.693,3.697-11.556,14.79-22.417,22.879c-31.893,23.342-88.974,45.065-146.981,55.465
			c-33.047,6.009-66.095,6.933-76.032,2.08c-6.472-3.236-7.396-5.777-5.085-14.097c4.854-17.334,20.569-36.283,45.066-54.078
			c12.479-9.015,63.09-39.75,86.663-52.691c38.825-21.262,70.256-33.973,91.516-36.977c6.702-0.926,14.791-1.156,17.334,0
			c4.159,1.617,8.781,13.865,10.63,28.656C3276.858,1253.548,3276.395,1288.214,3275.24,1294.453z"/>
		<path id="Path_8576" d="M2730.762,1370.947c-1.386,2.773-8.32,5.778-16.176,6.934c-7.858,1.155-31.893,0.462-45.528-1.155
			c-48.993-6.472-100.991-21.492-138.893-39.981c-21.26-10.399-36.514-20.799-47.837-32.123l-6.472-6.701l-0.693-8.782
			c-1.155-15.253-0.924-39.287,0.925-47.839c1.155-7.163,3.697-14.098,7.164-20.337c1.849-2.311,1.849-2.311,10.168-2.311
			c10.169,0,18.719,1.617,32.585,6.009c28.426,8.781,70.718,30.044,122.254,61.011c42.523,25.421,58.468,37.901,70.717,55.003
			C2727.296,1351.305,2732.842,1366.326,2730.762,1370.947z"/>
		<path id="Path_8577" d="M3058.003,1692.643c0,0.693-2.773,11.786-6.239,24.959c-3.467,13.174-6.24,23.804-6.24,24.266
			c-2.543,0.231-4.854,0.463-7.396,0.231h-7.395l-10.17,24.034c-5.546,13.174-10.63,25.421-11.323,27.271l-1.387,3.235l-4.853-7.857
			l-4.854-7.857v-64.016l-1.849,0.462c-3.93,0.925-31.893,4.623-44.142,5.778c-50.61,5.084-101.452,3.928-151.833-3.235
			c-8.089-1.156-15.022-2.08-15.252-1.85c-0.232,0.231,0,15.022,0.461,33.279l0.693,32.817l-3.928,6.008
			c-2.08,3.235-4.159,6.009-4.159,6.24c-0.693,0.693-3.005-3.005-8.32-13.635c-5.778-11.093-9.938-22.88-12.942-35.129l-1.617-6.701
			l-7.165,0.462l-7.165,0.693l-1.848-8.551c-0.925-4.622-2.08-11.787-2.542-15.715l-0.693-7.396l-6.009-5.315
			c-3.466-3.004-6.933-6.008-7.626-6.471c-1.154-0.925-1.617-2.542-1.617-3.929v-2.773l28.888,0.23l28.888,0.231l0.924,3.005
			l0.925,3.004l9.938,0.463c5.546,0.23,23.109,0.692,38.824,1.155l28.889,0.693l7.394-11.556l7.627-11.555h9.705l-0.23-24.035
			l-0.23-24.034l-12.711-5.548c-40.904-18.025-64.94-38.594-73.953-63.552c-1.848-5.085-1.848-6.935-2.311-30.044
			c-0.23-22.88-0.23-24.959,1.387-30.043c3.235-11.556,12.248-20.568,23.804-23.573c3.929-1.155,14.328-1.155,68.869-1.155
			l64.247,0.231l7.163,3.466c8.55,4.16,12.479,7.164,17.333,13.636c5.546,7.396,7.163,13.173,7.163,27.271
			c0,20.105-1.387,37.438-3.467,44.371c-3.004,9.476-7.626,18.488-13.403,26.576c-11.555,14.791-32.586,29.582-51.768,36.283
			l-5.546,2.081l0.23,24.266l0.232,24.265l5.083,0.463l5.084,0.463l6.934,10.399l6.701,10.399h30.968
			c17.104,0,32.124,0.23,33.511,0.462c2.312,0.463,2.772,0.231,5.084-3.698l2.773-4.159h26.577
			C3051.995,1691.488,3058.003,1691.949,3058.003,1692.643z"/>
		<path id="Path_8578" d="M2935.981,1758.97c-4.391,2.542-7.396,3.696-8.088,3.235c-0.693-0.23-3.929-3.005-7.395-5.547l-6.24-5.084
			l-6.472,6.933c-14.098,15.254-14.559,15.946-18.719,16.178c-6.472,0.693-7.858-0.463-15.716-12.249
			c-4.16-6.009-7.395-11.093-7.395-11.093s-3.004-0.462-6.471-0.693l-6.471-0.692l-3.005,6.239l-3.004,6.239l-5.315-1.617
			c-4.16-1.387-8.319-3.005-12.249-4.853l-6.933-3.467v-13.174l61.473,0.231l61.473,0.231l0.23,6.239
			C2945.918,1753.423,2946.15,1753.193,2935.981,1758.97z"/>
	</g>
	<path id="Path_8579" fill="#FFFFFF" d="M3513.737,1477.024c-0.23-0.924-0.23-2.541-0.461-5.083
		c-55.465-6.01-213.77-9.706-360.752,111.622c0,0-47.375-217.236-269.234-217.236c-221.858,0-304.13,217.236-304.13,217.236
		c-124.332-133.809-290.726-124.102-350.813-115.32c0,1.386-0.23,3.005-0.23,4.391c-1.849,33.511-0.925,49.456,4.623,70.487
		c17.332,65.863,70.717,138.43,154.376,209.609c137.043,116.476,322.85,200.598,463.592,210.304
		c146.749,9.937,363.292-75.803,507.5-201.061c22.648-20.105,43.91-41.366,63.785-64.015c14.327-16.64,35.59-45.296,33.971-45.296
		c-0.461,0,0-0.462,0.926-0.925c0.693-0.462,1.387-1.155,0.924-1.617c-0.23-0.23,0.23-0.924,0.924-1.156
		c0.693-0.23,1.156-0.693,0.926-1.154c-0.232-0.463,0-0.926,0.924-1.156c0.693-0.23,0.924-0.925,0.693-1.387s0-0.925,0.462-0.925
		s0.925-0.692,0.925-1.154c0-0.463,0.462-1.156,0.925-1.156c0.461,0,0.924-0.463,0.924-0.924c0.693-1.85,1.85-3.699,3.005-5.316
		c3.467-5.315,17.332-30.043,19.182-34.203c13.173-29.813,21.492-56.389,25.421-82.965
		C3513.506,1505.912,3514.663,1482.57,3513.737,1477.024z M2935.981,1758.97c-4.391,2.542-7.396,3.696-8.088,3.235
		c-0.693-0.23-3.929-3.005-7.395-5.547l-6.24-5.084l-6.472,6.933c-14.098,15.254-14.559,15.946-18.719,16.178
		c-6.472,0.693-7.858-0.463-15.716-12.249c-4.16-6.009-7.395-11.093-7.395-11.093s-3.004-0.462-6.471-0.693l-6.471-0.692
		l-3.005,6.239l-3.004,6.239l-5.315-1.617c-4.16-1.387-8.319-3.005-12.249-4.853l-6.933-3.467v-13.174l61.473,0.231l61.473,0.231
		l0.23,6.239C2945.918,1753.423,2946.15,1753.193,2935.981,1758.97z M3051.533,1717.37c-3.466,13.174-6.239,23.805-6.239,24.267
		c-2.543,0.23-4.854,0.462-7.396,0.23h-7.396l-9.938,24.266c-5.546,13.174-10.63,25.421-11.323,27.271l-1.387,3.235l-4.853-7.857
		l-4.854-7.857v-64.016l-1.849,0.462c-3.93,0.925-31.893,4.623-44.142,5.778c-50.61,5.084-101.452,3.928-151.833-3.235
		c-8.089-1.156-15.022-2.08-15.252-1.85c-0.232,0.231,0,15.022,0.461,33.279l0.693,32.817l-3.928,6.008
		c-2.08,3.235-4.159,6.009-4.159,6.24c-0.693,0.693-3.005-3.005-8.32-13.635c-5.778-11.093-9.938-22.88-12.942-35.129l-1.617-6.701
		l-7.165,0.462l-7.165,0.693l-1.848-8.551c-0.925-4.622-2.08-11.787-2.542-15.715l-0.693-7.396l-6.009-5.315
		c-3.466-3.004-6.933-6.008-7.626-6.471c-1.154-0.925-1.617-2.542-1.617-3.929v-2.773l28.888,0.23l28.888,0.231l0.924,3.005
		l0.925,3.004l9.938,0.463c5.546,0.23,23.109,0.692,38.824,1.155l28.889,0.693l7.394-11.556l7.627-11.555h9.705l-0.23-24.035
		l-0.23-24.034l-12.711-5.548c-40.904-18.025-64.94-38.594-73.953-63.552c-1.848-5.085-1.848-6.935-2.311-30.044
		c-0.23-22.88-0.23-24.959,1.387-30.043c3.235-11.556,12.248-20.568,23.804-23.573c3.929-1.155,14.328-1.155,68.869-1.155
		l64.247,0.231l7.163,3.466c8.55,4.16,12.479,7.164,17.333,13.636c5.546,7.396,7.163,13.173,7.163,27.271
		c0,20.105-1.387,37.438-3.467,44.371c-3.004,9.476-7.626,18.488-13.403,26.576c-11.555,14.791-32.586,29.582-51.768,36.283
		l-5.546,2.081l0.23,24.266l0.232,24.265l5.083,0.463l5.084,0.463l6.934,10.399l6.701,10.399h30.968
		c17.104,0,32.124,0.23,33.511,0.462c2.312,0.463,2.772,0.231,5.084-3.698l2.773-4.159h26.577c20.567,0,26.576,0.231,26.576,0.925
		C3058.003,1693.106,3055,1704.429,3051.533,1717.37z"/>
	<path id="Path_8580" fill="none" d="M2227.883,1468.242c-14.559,2.08-23.11,4.391-23.11,4.391"/>
	<path id="Path_8581" fill="none" d="M3533.844,1474.943c0,0-7.396-1.617-20.568-3.003"/>
	<path id="Path_8582" fill="#FFA409" d="M3511.889,1453.452c-0.463-10.399-1.387-24.959-2.08-32.124
		c-9.938-104.92-36.746-190.659-87.588-281.482c-2.08-3.467-3.93-6.934-5.084-9.706c-0.463-0.693-0.694-1.387-0.925-1.85l0,0
		c7.165-21.492,36.515-111.392,59.854-214.232c31.662-139.585,51.768-302.744-9.705-351.737c0,0-106.308-7.857-248.667,131.729
		c-38.594,38.594-73.951,80.424-105.382,125.026l-9.938-3.235c-57.314-18.72-116.708-30.274-176.563-34.203
		c-18.026-1.387-85.277-1.387-107.231,0c-66.326,4.391-117.169,14.328-174.945,34.434c-2.311,0.925-4.391,1.618-6.47,2.312
		c-32.586-44.371-68.869-85.97-108.849-124.102c-148.137-140.279-258.373-132.19-258.373-132.19
		c-65.172,50.61-42.985,221.164-9.245,365.372c22.185,95.445,49.456,179.336,59.624,209.61c-0.693,1.617-1.617,3.467-2.541,5.084
		c-53.848,109.081-82.967,214.232-89.9,326.086c60.318-8.781,226.481-18.72,351.045,115.32c0,0,82.272-217.236,304.13-217.236
		c221.857,0,269.234,217.236,269.234,217.236c146.98-121.328,305.287-117.399,360.75-111.622
		C3512.813,1467.318,3512.35,1460.385,3511.889,1453.452z M2364.003,1049.946c0,0-86.432-216.081-64.247-339.489l0,0
		c3.697-20.8,10.631-39.057,21.493-52.922c0,0,97.988,9.706,256.061,185.344c0,0-30.043,14.56-70.255,45.527
		c0,0-0.23,0.23-0.463,0.23C2462.915,922.147,2406.988,975.3,2364.003,1049.946L2364.003,1049.946z M2730.762,1370.947
		c-1.386,2.773-8.32,5.778-16.176,6.934c-7.858,1.155-31.893,0.462-45.528-1.155c-48.993-6.472-100.991-21.492-138.893-39.981
		c-21.26-10.399-36.514-20.799-47.837-32.123l-6.472-6.701l-0.693-8.782c-1.155-15.253-0.924-39.287,0.925-47.839
		c1.155-7.163,3.697-14.098,7.164-20.337c1.849-2.311,1.849-2.311,10.168-2.311c10.169,0,18.719,1.617,32.585,6.009
		c28.426,8.781,70.718,30.044,122.254,61.011c42.523,25.421,58.468,37.901,70.717,55.003
		C2727.296,1351.305,2732.842,1366.326,2730.762,1370.947z M3275.24,1294.453c-0.693,3.697-11.556,14.79-22.417,22.879
		c-31.893,23.342-88.974,45.065-146.981,55.465c-33.047,6.009-66.095,6.933-76.032,2.08c-6.472-3.236-7.396-5.777-5.085-14.097
		c4.854-17.334,20.569-36.283,45.066-54.078c12.479-9.015,63.09-39.75,86.663-52.691c38.825-21.262,70.256-33.973,91.516-36.977
		c6.702-0.926,14.791-1.156,17.334,0c4.159,1.617,8.781,13.865,10.63,28.656C3276.858,1253.548,3276.395,1288.214,3275.24,1294.453z
		 M3236.876,888.406l-0.462-0.231c-38.825-30.968-67.944-45.527-67.944-45.527c152.759-175.638,247.28-185.344,247.28-185.344
		c10.399,14.097,17.101,32.123,20.799,52.922l0,0c21.492,123.409-61.936,339.721-61.936,339.721
		C3339.718,987.78,3292.803,932.777,3236.876,888.406L3236.876,888.406z"/>
	<path id="Path_8583" fill="none" d="M3112.082,819.075c-0.462,0.463-0.693,1.156-1.156,1.618"/>
	<path id="Path_8584" fill="none" d="M3415.981,1128.06c-1.155,3.234-1.617,4.853-1.617,4.853"/>
	<g id="Group_934">
		<g id="Group_933">
			<g id="Group_932">
				<path id="Path_8585" fill="#FF9300" d="M3436.78,710.226c-18.025-2.311-103.303-2.773-199.903,178.181l-0.462-0.231
					c-38.825-30.968-67.944-45.527-67.944-45.527c152.759-175.638,247.28-185.344,247.28-185.344
					C3426.381,671.401,3433.083,689.427,3436.78,710.226z"/>
			</g>
			<path id="Path_8586" fill="#FF8300" d="M3374.845,1049.946c-35.127-62.397-81.811-117.169-137.969-161.54
				c96.603-180.954,181.647-180.491,199.903-178.181l0,0C3458.274,833.865,3374.845,1049.946,3374.845,1049.946z"/>
			<path id="Path_8587" fill="#FF8300" d="M3440.247,710.919c-1.156-0.23-2.311-0.462-3.467-0.693L3440.247,710.919z"/>
		</g>
	</g>
	<path id="Path_8588" fill="none" d="M2644.1,828.089c-2.312-3.236-4.854-6.472-7.165-9.707"/>
	<path id="Path_8589" fill="none" d="M2320.324,1137.072c2.543,7.856,4.16,12.017,4.16,12.017"/>
	<g id="Group_937">
		<g id="Group_936">
			<g id="Group_935">
				<path id="Path_8590" fill="#FF9300" d="M2577.311,842.648c0,0-30.044,14.56-70.256,45.527c0,0-0.231,0.231-0.462,0.231
					c-100.067-181.185-188.118-180.491-207.067-178.181c3.697-20.799,10.63-39.056,21.492-52.922
					C2321.25,657.304,2419.237,667.01,2577.311,842.648z"/>
			</g>
			<path id="Path_8591" fill="#FF8300" d="M2506.824,888.406c-43.909,33.74-99.835,86.663-142.821,161.54
				c0,0-86.432-216.081-64.247-339.721l0,0C2318.475,707.915,2406.757,707.452,2506.824,888.406z"/>
			<path id="Path_8592" fill="#FF8300" d="M2299.756,710.226c-1.156,0.231-2.542,0.463-3.697,0.693L2299.756,710.226z"/>
		</g>
	</g>
	<path id="Path_8593" fill="#FFFFFF" d="M3140.969,1169.889c0,0-73.953,4.622-64.709-53.154
		c9.244-57.774,67.02-64.708,83.197-62.397c16.178,2.312,80.886,25.422,69.331,73.953c-11.556,48.531-27.732,39.287-36.976,41.599
		C3182.568,1172.199,3140.969,1169.889,3140.969,1169.889z"/>
	<path id="Path_8594" fill="#FFFFFF" d="M2595.567,1169.889c0,0-73.952,4.622-64.709-53.154
		c9.245-57.774,67.02-64.708,83.197-62.397c16.178,2.312,80.886,25.422,69.331,73.953c-11.556,48.531-27.733,39.287-36.977,41.599
		C2637.167,1172.199,2595.567,1169.889,2595.567,1169.889z"/>
</g>
</svg>
