<?xml version="1.0" encoding="UTF-8"?><svg id="CIRCLE_OUTLINE_BLACK" xmlns="http://www.w3.org/2000/svg" viewBox="0 0 512 512"><circle cx="256" cy="256" r="256"/><path d="M121.60475,177.70215c31.57133-18.23513,62.67466-36.19998,94.41298-54.53158,31.06233,17.92268,62.14705,35.85829,93.74826,54.09192v110.61185c-12.14638,7.10139-24.78825,14.49246-38.03526,22.23732-8.8378-4.97251-17.60267-9.90396-28.06567-15.79085,13.45564-7.92659,25.78222-15.18803,38.32026-22.57407v-78.19861c-21.67318-12.50763-43.20055-24.9311-65.8129-37.98072-22.12586,12.68824-44.42103,25.47356-66.93422,38.38392v77.16085c12.57439,7.4188,25.21355,14.87581,39.15698,23.10232-9.53358,5.61188-18.0554,10.62819-27.37451,16.11381-13.10017-7.5396-26.18021-15.06759-39.41593-22.68522v-109.94095Z" fill="#fff"/><path d="M362.68538,318.59422v-78.32693c-11.93388-7.01406-23.80197-13.98944-37.98109-22.32309,9.725-5.73051,18.10592-10.66903,27.35753-16.1206,12.65062,7.25011,25.31345,14.5072,38.33342,21.969v110.99357c-30.48894,17.64929-61.49295,35.59674-93.35913,54.04327-31.53776-18.16308-63.00443-36.2852-94.76368-54.57584v-109.61858c12.34864-7.21294,25.36529-14.81604,39.07528-22.82416,8.63373,4.8529,17.29573,9.7217,28.04698,15.76481-13.84593,8.20798-26.28686,15.58306-39.33415,23.3176v77.02236c21.64879,12.53439,43.88587,25.40938,66.78396,38.6671,21.73572-12.54098,43.55051-25.12753,65.84087-37.9885Z" fill="#fff"/></svg>